<?xml version="1.0" encoding="utf-8"?>
<!-- Generator: Adobe Illustrator 27.6.1, SVG Export Plug-In . SVG Version: 6.00 Build 0)  -->
<svg version="1.1" id="Слой_1" xmlns="http://www.w3.org/2000/svg" xmlns:xlink="http://www.w3.org/1999/xlink" x="0px" y="0px"
	 viewBox="0 0 595.28 841.89" style="enable-background:new 0 0 595.28 841.89;" xml:space="preserve">
<style type="text/css">
	.st0{fill:#FFFFFF;stroke:#E11827;stroke-width:6;stroke-miterlimit:10;}
	.st1{fill:#E11827;}
	.st2{fill:#FFFFFF;}
	.st3{font-family:'Cambria-Bold';}
	.st4{font-size:169.8898px;}
</style>
<g>
	<g>
		<g>
			<g>
				<g>
					<circle class="st0" cx="309.68" cy="220.08" r="187.41"/>
					<ellipse class="st1" cx="309.68" cy="220.03" rx="182.2" ry="181.89"/>
				</g>
				<ellipse class="st2" cx="309.68" cy="220.08" rx="124.34" ry="127.7"/>
			</g>
			<g>
				<g>
					<path class="st2" d="M239.95,95.39c-0.16-0.23-0.33-0.46-0.49-0.69c-0.34-0.2-1.32-0.88-2.98-1.99
						c-1.95-1.32-3.33-2.17-4.13-2.58c-0.8-0.41-1.54-0.59-2.23-0.54c-0.69,0.05-1.48,0.4-2.35,1.07c-0.1,0.07-0.19,0.15-0.29,0.22
						c1.4,1.76,2.8,3.51,4.21,5.25c0.7,0.87,1.26,1.39,1.67,1.57c0.41,0.18,1,0.1,1.76-0.23c0.23,0.29,0.46,0.59,0.69,0.88
						c-2.35,1.75-4.65,3.59-6.89,5.53c-0.25-0.28-0.51-0.55-0.76-0.83c0.47-0.66,0.66-1.19,0.57-1.62
						c-0.09-0.42-0.51-1.07-1.26-1.92c-3.23-3.67-6.43-7.36-9.6-11.07c-0.76-0.89-1.34-1.39-1.76-1.52
						c-0.42-0.12-1.06,0.04-1.93,0.49c-0.25-0.28-0.49-0.56-0.74-0.85c2.7-2.3,5.46-4.48,8.27-6.54c0.22,0.3,0.45,0.6,0.67,0.89
						c-0.62,0.72-0.9,1.3-0.88,1.75c0.03,0.45,0.39,1.12,1.1,2.02c1.24,1.59,2.48,3.17,3.73,4.74c0.1-0.08,0.21-0.16,0.31-0.24
						c1.19-0.9,1.87-1.89,2.03-2.98c0.17-1.1,0.05-2.39-0.34-3.87c-0.49-1.82-0.69-3.19-0.63-4.11c0.05-0.92,0.34-1.78,0.85-2.57
						c0.51-0.79,1.37-1.57,2.55-2.3c0.91-0.57,1.79-0.94,2.62-1.14c0.72,1.19,1.43,2.37,2.15,3.56c-0.77,0.46-1.53,0.92-2.29,1.39
						c-0.67-0.79-1.38-0.95-2.13-0.47c-0.57,0.36-0.88,0.93-0.92,1.7c-0.05,0.77,0.04,1.77,0.27,3c0.41,2.01,0.25,3.7-0.47,5.08
						c0.03,0.05,0.07,0.09,0.1,0.14c1.12-0.63,2.14-0.95,3.04-0.99c0.9-0.04,1.69,0.1,2.39,0.41c0.7,0.31,1.93,1.02,3.66,2.16
						c2.06,1.37,3.37,2.2,3.96,2.46c0.59,0.26,1.24,0.23,1.98-0.08c0.2,0.31,0.4,0.63,0.59,0.94
						C243.99,92.74,241.96,94.03,239.95,95.39z"/>
					<path class="st2" d="M256.36,86.29c-2.85,1.36-5.41,1.64-7.82,0.76c-2.4-0.88-4.64-2.92-6.61-6.23
						c-1.29-2.17-2.01-4.25-2.11-6.24c-0.11-1.99,0.41-3.83,1.57-5.47c1.15-1.65,2.87-3.02,5.12-4.07c3.5-1.63,6.56-1.84,9.01-0.76
						c2.47,1.08,4.31,3.43,5.66,6.94c0.76,1.96,1.17,3.74,1.27,5.32c0.09,1.58-0.09,2.98-0.54,4.21c-0.45,1.23-1.15,2.29-2.09,3.2
						C258.88,84.87,257.73,85.64,256.36,86.29z M246.71,77.71c1.6,2.98,3.17,5,4.67,6.09c1.5,1.09,2.97,1.28,4.44,0.58
						c0.76-0.36,1.31-0.87,1.65-1.53c0.34-0.66,0.51-1.44,0.51-2.35c0-0.9-0.16-1.91-0.47-3.02c-0.31-1.11-0.74-2.28-1.28-3.53
						c-0.89-2.03-1.8-3.67-2.76-4.89c-0.95-1.22-1.95-2.03-3-2.4c-1.04-0.37-2.15-0.3-3.29,0.23c-1.67,0.78-2.57,2.09-2.65,3.87
						C244.44,72.54,245.18,74.85,246.71,77.71z"/>
					<path class="st2" d="M289.29,53.86c-0.63,0.26-1.05,0.5-1.26,0.73c-0.21,0.23-0.33,0.51-0.38,0.85
						c-0.05,0.34-0.01,0.92,0.1,1.74c0.67,4.75,1.37,9.49,2.1,14.23c0.1,0.67,0.22,1.19,0.34,1.57c0.12,0.38,0.3,0.65,0.52,0.83
						c0.23,0.17,0.65,0.3,1.27,0.38c0.05,0.36,0.1,0.72,0.16,1.09c-2.66,0.38-5.31,0.84-7.95,1.39c-0.08-0.36-0.15-0.72-0.23-1.07
						c0.43-0.22,0.72-0.4,0.88-0.54c0.16-0.13,0.27-0.29,0.34-0.47c0.07-0.18,0.09-0.43,0.07-0.76c-0.02-0.33-0.1-0.87-0.24-1.6
						c-0.53-2.67-1.04-5.33-1.54-8c-0.17-0.88-0.34-1.93-0.53-3.13c-0.19-1.21-0.31-2.06-0.36-2.57c-0.13,0.02-0.25,0.05-0.38,0.07
						c-0.06,0.46-0.13,0.92-0.21,1.37c-0.08,0.45-0.24,1.26-0.45,2.42c-0.77,4.24-1.38,8.48-1.81,12.71
						c-0.92,0.22-1.84,0.46-2.76,0.7c-2.67-3.95-5.47-7.84-8.4-11.67c-0.51-0.65-0.99-1.3-1.43-1.95c-0.11,0.03-0.21,0.06-0.32,0.1
						c0.66,1.72,1.35,3.77,2.1,6.16c0.77,2.44,1.54,4.88,2.33,7.31c0.25,0.78,0.47,1.32,0.64,1.6c0.17,0.29,0.4,0.49,0.68,0.63
						c0.28,0.13,0.71,0.19,1.29,0.17c0.11,0.35,0.22,0.7,0.33,1.05c-1.92,0.57-3.83,1.19-5.73,1.85c-0.13-0.34-0.25-0.69-0.38-1.03
						c0.34-0.24,0.59-0.45,0.77-0.65c0.17-0.2,0.28-0.42,0.32-0.67c0.04-0.25,0.01-0.54-0.08-0.87c-0.09-0.33-0.22-0.75-0.4-1.26
						c-1.58-4.55-3.13-9.1-4.64-13.67c-0.27-0.8-0.48-1.34-0.66-1.61c-0.18-0.27-0.41-0.46-0.7-0.58c-0.29-0.11-0.8-0.14-1.52-0.08
						c-0.12-0.35-0.24-0.69-0.36-1.04c2.99-1.03,6-1.97,9.03-2.8c2.87,3.94,5.61,7.94,8.22,12c0.58-4.83,1.38-9.67,2.39-14.51
						c2.89-0.57,5.79-1.06,8.7-1.46C289.2,53.13,289.25,53.5,289.29,53.86z"/>
					<path class="st2" d="M316.05,52.58c-0.88,0.17-1.43,0.44-1.67,0.79c-0.24,0.35-0.39,1.1-0.46,2.24
						c-0.27,4.76-0.5,9.52-0.7,14.28c-0.05,1.12,0.02,1.86,0.18,2.24c0.17,0.38,0.62,0.67,1.35,0.89c-0.02,0.36-0.04,0.73-0.06,1.09
						c-2.7-0.11-5.41-0.12-8.12-0.06c-0.01-0.37-0.01-0.73-0.02-1.1c0.75-0.21,1.22-0.47,1.4-0.8c0.18-0.33,0.27-1.1,0.27-2.3
						c0-5.47,0.05-10.94,0.14-16.41c-2.58,0.02-5.17,0.12-7.75,0.28c0.22,5.47,0.49,10.93,0.8,16.39c0.06,1.09,0.2,1.83,0.42,2.19
						c0.22,0.37,0.7,0.62,1.46,0.77c0.02,0.36,0.03,0.73,0.05,1.09c-2.73,0.14-5.46,0.37-8.18,0.69c-0.04-0.36-0.09-0.73-0.13-1.09
						c0.7-0.27,1.13-0.6,1.3-0.99c0.16-0.39,0.19-1.14,0.08-2.25c-0.47-4.75-0.91-9.5-1.31-14.26c-0.1-1.14-0.27-1.87-0.52-2.2
						c-0.25-0.33-0.82-0.56-1.72-0.67c-0.03-0.36-0.07-0.73-0.1-1.09c7.79-0.89,15.61-1.16,23.39-0.83
						C316.11,51.85,316.08,52.22,316.05,52.58z"/>
					<path class="st2" d="M329.89,68.52c-2.31-0.35-4.63-0.65-6.96-0.88c-0.25,0.5-0.49,1.01-0.73,1.51
						c-0.2,0.43-0.38,0.84-0.52,1.24c-0.14,0.4-0.24,0.84-0.29,1.3c-0.12,1.08,0.36,1.7,1.43,1.89c-0.05,0.36-0.09,0.73-0.14,1.09
						c-2.19-0.23-4.4-0.4-6.6-0.51c0.02-0.36,0.05-0.73,0.07-1.09c0.39-0.02,0.74-0.15,1.05-0.38c0.31-0.23,0.61-0.54,0.88-0.94
						c0.28-0.4,0.59-0.99,0.94-1.75c2.8-5.97,5.98-11.84,9.55-17.59c1.64,0.21,3.28,0.44,4.91,0.7c0.78,6.41,1.33,12.82,1.65,19.21
						c0.04,0.86,0.1,1.47,0.17,1.84c0.08,0.37,0.21,0.69,0.4,0.95c0.2,0.26,0.5,0.49,0.91,0.68c-0.09,0.36-0.18,0.71-0.27,1.07
						c-2.78-0.61-5.58-1.12-8.39-1.53c0.06-0.36,0.12-0.72,0.19-1.08c0.55,0.01,0.97-0.08,1.28-0.29c0.3-0.21,0.5-0.54,0.59-1
						c0.06-0.34,0.1-0.72,0.1-1.15c0-0.43-0.02-0.97-0.07-1.63C329.98,69.64,329.94,69.08,329.89,68.52z M323.8,65.78
						c1.99,0.21,3.98,0.46,5.96,0.76c-0.32-3.2-0.7-6.4-1.13-9.61C326.93,59.85,325.32,62.81,323.8,65.78z"/>
					<path class="st2" d="M357.18,78.88c-0.35,0.78-0.56,1.33-0.63,1.65c-0.07,0.32-0.05,0.61,0.06,0.88
						c0.11,0.27,0.38,0.58,0.83,0.92c-0.16,0.33-0.31,0.67-0.47,1c-2.48-1.03-5-1.97-7.54-2.83c0.13-0.34,0.26-0.69,0.39-1.03
						c0.63,0.04,1.06,0.01,1.29-0.09c0.23-0.1,0.43-0.27,0.62-0.54c0.18-0.26,0.45-0.83,0.8-1.71c0.84-2.07,1.68-4.14,2.52-6.21
						c-2.4-0.85-4.83-1.63-7.28-2.34c-0.72,2.11-1.43,4.23-2.13,6.34c-0.12,0.37-0.23,0.71-0.31,1.04
						c-0.08,0.32-0.13,0.59-0.14,0.81c-0.01,0.22,0.02,0.41,0.09,0.58c0.07,0.17,0.19,0.34,0.35,0.5c0.17,0.16,0.38,0.32,0.64,0.48
						c-0.12,0.35-0.24,0.69-0.36,1.04c-2.58-0.79-5.19-1.49-7.83-2.1c0.09-0.35,0.19-0.71,0.28-1.06c0.4-0.02,0.73-0.06,0.98-0.13
						c0.25-0.07,0.46-0.2,0.63-0.4c0.17-0.19,0.32-0.45,0.44-0.78c0.13-0.33,0.26-0.75,0.41-1.26c1.32-4.6,2.67-9.2,4.04-13.79
						c0.15-0.5,0.26-0.92,0.33-1.27c0.07-0.35,0.08-0.64,0.02-0.89c-0.06-0.24-0.2-0.46-0.41-0.66c-0.22-0.2-0.54-0.4-0.96-0.62
						c0.1-0.35,0.2-0.7,0.3-1.06c3.16,0.75,6.29,1.6,9.39,2.55c-0.13,0.35-0.25,0.69-0.38,1.04c-0.68-0.03-1.17,0.01-1.46,0.13
						c-0.3,0.12-0.54,0.32-0.74,0.61c-0.2,0.28-0.44,0.83-0.72,1.64c-0.61,1.76-1.21,3.51-1.81,5.27c2.49,0.72,4.96,1.52,7.4,2.39
						c0.71-1.72,1.42-3.44,2.13-5.16c0.33-0.78,0.52-1.34,0.57-1.67c0.05-0.33,0.01-0.63-0.14-0.9c-0.14-0.27-0.5-0.59-1.06-0.96
						c0.14-0.34,0.27-0.68,0.41-1.02c3.05,1.04,6.08,2.18,9.06,3.43c-0.16,0.33-0.32,0.66-0.49,0.99c-0.56-0.09-0.98-0.11-1.27-0.06
						c-0.29,0.04-0.54,0.15-0.73,0.33c-0.2,0.17-0.37,0.39-0.52,0.64c-0.15,0.25-0.36,0.65-0.61,1.2
						C361.17,70.14,359.17,74.5,357.18,78.88z"/>
					<path class="st2" d="M378.54,89.9c-0.67,0.92-1.04,1.58-1.11,1.98c-0.07,0.41,0.15,0.89,0.66,1.45
						c-0.22,0.3-0.45,0.59-0.67,0.89c-2.25-1.5-4.55-2.93-6.9-4.27c0.2-0.31,0.4-0.62,0.6-0.93c0.76,0.21,1.3,0.23,1.64,0.05
						c0.34-0.19,0.85-0.79,1.53-1.81c1.22-1.83,2.45-3.65,3.68-5.47c1.11-1.65,2.01-2.87,2.68-3.67c-0.03-0.02-0.06-0.04-0.09-0.05
						c-4.49,1.64-8.81,3.5-12.92,5.54c-0.56,0.96-0.84,1.65-0.86,2.08c-0.02,0.42,0.25,0.89,0.81,1.4
						c-0.19,0.32-0.38,0.64-0.57,0.95c-2.4-1.26-4.83-2.45-7.3-3.54c0.16-0.33,0.33-0.66,0.49-0.99c0.74,0.12,1.29,0.06,1.64-0.19
						c0.35-0.25,0.79-0.88,1.32-1.88c2.23-4.27,4.49-8.53,6.77-12.78c0.55-1.02,0.8-1.73,0.77-2.13c-0.03-0.41-0.39-0.89-1.09-1.43
						c0.17-0.33,0.34-0.65,0.51-0.98c2.97,1.33,5.9,2.75,8.79,4.28c-0.19,0.31-0.39,0.63-0.58,0.94c-0.89-0.22-1.54-0.22-1.93,0
						c-0.39,0.21-0.88,0.81-1.45,1.78c-1.26,2.12-2.51,4.25-3.76,6.37c-0.71,1.21-1.3,2.15-1.77,2.81c0.03,0.01,0.06,0.03,0.09,0.04
						c4.19-2.01,8.58-3.83,13.14-5.44c0.53-0.78,0.8-1.37,0.81-1.76c0-0.4-0.31-0.9-0.95-1.5c0.21-0.31,0.41-0.62,0.62-0.93
						c2.82,1.62,5.59,3.34,8.31,5.16c-0.23,0.29-0.46,0.59-0.69,0.88c-0.86-0.32-1.49-0.38-1.89-0.21
						c-0.41,0.17-0.96,0.72-1.66,1.65C384.3,82.09,381.41,85.99,378.54,89.9z"/>
					<path class="st2" d="M388.87,101.47c0.71,0.35,1.27,0.46,1.68,0.31c0.42-0.14,1.03-0.62,1.84-1.43
						c1.29-1.3,2.58-2.59,3.88-3.88c-0.21-0.18-0.41-0.36-0.62-0.54c-0.88-0.76-1.76-1.16-2.62-1.2c-0.86-0.04-2.19,0.4-3.95,1.37
						c-2.16,1.19-3.61,1.97-4.42,2.3c-0.19,0.21-0.37,0.43-0.56,0.64c-1.69-1.31-3.41-2.57-5.16-3.78c0.23-0.29,0.46-0.59,0.69-0.88
						c0.98,0.46,2.39,0.14,4.29-0.94c0.64-0.36,1.29-0.72,1.94-1.08c1.83-1.01,3.76-1.25,5.77-0.68c0.04-0.04,0.08-0.08,0.11-0.13
						c-1.72-2.93-1.74-5.5,0.15-7.78c2.63-3.19,6.62-2.99,11.6,1.15c2.83,2.37,5.58,4.87,8.25,7.49c-0.28,0.25-0.57,0.49-0.85,0.74
						c-0.82-0.5-1.45-0.69-1.88-0.6c-0.44,0.09-1.09,0.53-1.95,1.31c-3.65,3.29-7.28,6.6-10.9,9.92c-0.85,0.78-1.34,1.37-1.47,1.77
						c-0.14,0.4-0.01,0.92,0.38,1.57c-0.28,0.25-0.56,0.5-0.84,0.75c-1.98-1.95-4.03-3.81-6.13-5.6
						C388.35,102.01,388.61,101.74,388.87,101.47z M397.68,95.06c2.24-2.23,4.49-4.45,6.75-6.66c-0.24-0.22-0.47-0.44-0.71-0.67
						c-1.74-1.61-3.24-2.32-4.42-2.18c-1.18,0.14-2.26,0.75-3.25,1.83c-1.15,1.27-1.68,2.42-1.6,3.47c0.08,1.04,0.72,2.06,1.92,3.08
						C396.82,94.31,397.25,94.68,397.68,95.06z"/>
				</g>
			</g>
		</g>
		<g>
			<g>
				<path class="st2" d="M156.87,284.8c-0.73,0.19-1.23,0.34-1.52,0.46c-0.29,0.12-0.5,0.25-0.65,0.4
					c-0.15,0.14-0.24,0.33-0.29,0.54c-0.05,0.22-0.05,0.53,0.02,0.94c-0.36,0.09-0.73,0.19-1.1,0.28c-0.91-2.34-1.76-4.7-2.55-7.1
					c0.37-0.08,0.73-0.15,1.1-0.23c0.22,0.3,0.43,0.54,0.62,0.69c0.19,0.16,0.42,0.26,0.68,0.3c0.26,0.04,0.57,0.04,0.93-0.02
					c0.36-0.05,0.8-0.14,1.33-0.26c4.76-1.11,9.47-2.34,14.12-3.68c0.51-0.15,0.93-0.28,1.27-0.4c0.34-0.12,0.6-0.25,0.78-0.4
					c0.18-0.14,0.31-0.32,0.39-0.52c0.07-0.2,0.11-0.47,0.11-0.79c0.35-0.1,0.71-0.21,1.06-0.31c0.81,2.21,1.67,4.38,2.59,6.53
					c0.8,1.87,0.96,3.43,0.44,4.71c-0.52,1.29-1.76,2.32-3.76,3.07c-1.41,0.52-2.75,0.75-4.02,0.66c-1.26-0.09-2.37-0.5-3.31-1.21
					c-0.94-0.72-1.7-1.77-2.26-3.13c-0.32-0.79-0.56-1.45-0.71-1.97C160.39,283.87,158.64,284.34,156.87,284.8z M163.98,282.85
					c0.14,0.35,0.28,0.7,0.41,1.04c0.32,0.81,0.74,1.4,1.25,1.77c0.51,0.37,1.14,0.56,1.91,0.57c0.76,0,1.71-0.18,2.84-0.57
					c1.11-0.38,1.95-0.8,2.51-1.24c0.56-0.44,0.89-0.92,0.99-1.43c0.1-0.51,0.01-1.08-0.26-1.73c-0.22-0.53-0.4-0.93-0.54-1.21
					C170.08,281.03,167.05,281.96,163.98,282.85z"/>
				<path class="st2" d="M168.57,302.74c-0.93-1.65-1.83-3.32-2.7-5c-0.58,0.06-1.15,0.12-1.73,0.18c-0.49,0.05-0.95,0.1-1.39,0.18
					c-0.44,0.07-0.89,0.19-1.35,0.35c-1.06,0.37-1.42,1-1.06,1.88c-0.36,0.13-0.72,0.25-1.08,0.38c-0.9-1.77-1.76-3.55-2.58-5.36
					c0.36-0.11,0.72-0.23,1.08-0.34c0.19,0.3,0.45,0.52,0.8,0.68c0.35,0.16,0.78,0.26,1.28,0.31c0.5,0.05,1.19,0.06,2.07,0
					c6.85-0.38,13.56-1.17,20.09-2.34c0.52,0.93,1.06,1.86,1.6,2.77c-5.04,3.91-10.13,7.81-15.28,11.69
					c-0.69,0.52-1.17,0.91-1.43,1.17c-0.26,0.26-0.44,0.53-0.53,0.81c-0.09,0.28-0.08,0.61,0.03,0.98c-0.35,0.15-0.7,0.31-1.05,0.46
					c-1.35-2.18-2.64-4.39-3.87-6.63c0.36-0.14,0.71-0.27,1.07-0.41c0.3,0.39,0.62,0.64,0.98,0.75c0.36,0.1,0.76,0.06,1.21-0.12
					c0.33-0.13,0.68-0.31,1.06-0.53c0.37-0.22,0.84-0.52,1.38-0.9C167.65,303.38,168.11,303.06,168.57,302.74z M167.98,297.47
					c0.73,1.4,1.48,2.79,2.26,4.16c2.63-1.87,5.25-3.74,7.85-5.62C174.76,296.59,171.39,297.08,167.98,297.47z"/>
				<path class="st2" d="M193.93,312.36c-1.39,0.91-2.78,1.8-4.19,2.69c-0.35-0.44-0.71-0.88-1.06-1.33
					c0.98-0.84,1.59-1.59,1.85-2.24c0.26-0.66,0.18-1.25-0.23-1.8c-0.77-1.02-2.08-1.36-3.98-1.04c-1.89,0.32-4.34,1.29-7.37,2.89
					c-2.82,1.49-4.8,2.85-5.89,4.15c-1.09,1.29-1.26,2.49-0.48,3.55c0.39,0.54,0.84,0.92,1.35,1.12c0.5,0.21,1.08,0.27,1.73,0.2
					c0.65-0.07,1.48-0.29,2.49-0.65c0.37,0.49,0.75,0.98,1.13,1.46c-1.52,0.88-3.05,1.74-4.59,2.59c-0.89-0.66-1.65-1.3-2.28-1.91
					c-0.63-0.61-1.21-1.29-1.74-2.03c-1.13-1.57-1.63-3.07-1.52-4.45c0.11-1.38,0.81-2.69,2.08-3.91c1.27-1.23,3.12-2.4,5.51-3.59
					c2.23-1.11,4.33-1.83,6.29-2.19c1.96-0.36,3.69-0.31,5.22,0.14c1.53,0.45,2.76,1.29,3.72,2.56c0.49,0.64,0.89,1.26,1.19,1.84
					C193.46,311,193.71,311.65,193.93,312.36z"/>
				<path class="st2" d="M199.82,318.35c-0.3,0.22-0.61,0.45-0.91,0.67c-0.3-0.25-0.59-0.37-0.85-0.38
					c-0.26-0.01-0.55,0.1-0.86,0.33c-0.16,0.11-0.32,0.26-0.48,0.45c-0.16,0.19-0.34,0.43-0.53,0.73c-0.19,0.3-0.48,0.78-0.86,1.44
					c-0.46,0.8-0.92,1.61-1.38,2.42c1.18-0.22,2.36-0.44,3.53-0.69c0.77-0.16,1.34-0.32,1.71-0.45c0.37-0.14,0.71-0.33,1.04-0.58
					c0.29-0.22,0.46-0.47,0.51-0.73c0.05-0.27-0.01-0.53-0.2-0.78c0.3-0.23,0.6-0.46,0.9-0.69c1.15,1.2,2.33,2.39,3.53,3.55
					c-0.3,0.24-0.59,0.49-0.89,0.73c-0.24-0.11-0.51-0.17-0.82-0.2c-0.31-0.02-0.74,0.01-1.3,0.1c-0.56,0.09-1.54,0.3-2.96,0.6
					c-2.04,0.43-4.1,0.82-6.18,1.16c-1.56,2.82-3.09,5.67-4.59,8.54c-0.15,0.29-0.29,0.58-0.43,0.88c-0.14,0.29-0.25,0.56-0.34,0.81
					c-0.09,0.25-0.14,0.44-0.15,0.59c-0.01,0.15-0.01,0.28,0.02,0.4c0.03,0.12,0.07,0.23,0.13,0.33c-0.31,0.22-0.62,0.44-0.94,0.67
					c-1.85-1.85-3.65-3.74-5.39-5.68c0.32-0.21,0.65-0.41,0.97-0.62c0.32,0.27,0.63,0.43,0.92,0.47c0.29,0.04,0.6-0.05,0.94-0.27
					c0.12-0.08,0.23-0.17,0.34-0.29c0.11-0.11,0.24-0.26,0.38-0.45c0.14-0.19,0.26-0.36,0.36-0.51c0.1-0.16,0.28-0.46,0.54-0.92
					c0.68-1.2,1.36-2.4,2.05-3.59c-1.64,0.23-3.29,0.44-4.96,0.63c-0.4,0.05-0.75,0.1-1.07,0.16c-0.31,0.06-0.58,0.13-0.81,0.21
					c-0.23,0.09-0.47,0.21-0.74,0.38c-0.27,0.16-0.44,0.38-0.51,0.65c-0.07,0.27,0,0.56,0.2,0.87c-0.33,0.2-0.65,0.4-0.98,0.6
					c-1.26-1.47-2.49-2.96-3.69-4.47c0.33-0.19,0.67-0.38,1-0.57c0.29,0.18,0.62,0.31,0.98,0.39c0.37,0.08,0.84,0.12,1.42,0.12
					c0.58,0,1.44-0.04,2.59-0.13c2.61-0.22,5.19-0.5,7.74-0.84c1.28-2.16,2.58-4.31,3.89-6.45c0.42-0.69,0.77-1.28,1.04-1.75
					c0.27-0.47,0.47-0.84,0.58-1.12c0.12-0.28,0.18-0.49,0.2-0.65c0.01-0.16-0.01-0.32-0.09-0.47c0.31-0.21,0.63-0.42,0.94-0.63
					C196.82,315.02,198.3,316.71,199.82,318.35z"/>
				<path class="st2" d="M193.71,345.36c-2.1-1.84-2.83-3.89-2.23-6.03c0.6-2.15,2.52-4.39,5.64-6.82c2.04-1.6,3.99-2.77,5.84-3.52
					c1.85-0.75,3.54-1.06,5.1-0.93c1.56,0.13,2.92,0.7,4.12,1.71c1.86,1.56,2.6,3.38,2.2,5.54c-0.4,2.15-1.93,4.61-4.72,7.31
					c-1.56,1.51-3.08,2.67-4.55,3.48c-1.47,0.81-2.89,1.31-4.24,1.49c-1.35,0.18-2.64,0.08-3.84-0.31
					C195.82,346.88,194.71,346.24,193.71,345.36z M200.54,335.07c-2.68,2.22-4.48,4.05-5.32,5.56c-0.84,1.51-0.74,2.74,0.31,3.66
					c0.55,0.48,1.2,0.72,1.95,0.74c0.75,0.02,1.58-0.15,2.47-0.52c0.89-0.36,1.83-0.89,2.81-1.59c0.98-0.7,2-1.52,3.03-2.46
					c1.69-1.54,2.99-2.93,3.9-4.16c0.92-1.22,1.45-2.27,1.61-3.15c0.16-0.87-0.07-1.57-0.7-2.1c-0.91-0.77-2.16-0.82-3.8-0.17
					C205.19,331.55,203.1,332.95,200.54,335.07z"/>
				<path class="st2" d="M206.26,354.96c-0.77-0.55-1.59-0.66-2.45-0.32c-0.87,0.34-2.38,1.28-4.6,2.79
					c-0.52-0.39-1.05-0.79-1.57-1.19c2.13-1.88,4.23-3.77,6.3-5.69c0.4,0.31,0.81,0.61,1.21,0.91c2.96-0.84,6.03-2.29,9.15-4.37
					c3.13-2.07,5.43-4.04,7-5.8c0.6-0.67,0.9-1.18,0.9-1.52c0-0.34-0.14-0.64-0.42-0.91c0.25-0.28,0.5-0.56,0.75-0.84
					c3.06,2.11,6.23,4.12,9.48,6.01c-0.23,0.3-0.45,0.6-0.68,0.89c-0.63-0.14-1.12-0.14-1.48,0c-0.36,0.15-0.99,0.79-1.9,1.93
					c-3.44,4.32-7.02,8.58-10.72,12.76c0.65,0.4,1.31,0.8,1.97,1.19c-1.83,2.13-3.69,4.24-5.58,6.33c-0.57-0.34-1.14-0.69-1.71-1.04
					c1.32-1.92,2.12-3.31,2.42-4.16c0.3-0.85,0.02-1.54-0.83-2.08C211.04,358.28,208.63,356.65,206.26,354.96z M213.48,357.24
					c4.4-4.71,8.63-9.51,12.69-14.41c-0.77-0.48-1.53-0.97-2.28-1.47c-5.74,5.89-11.37,9.76-16.68,11.59
					C209.26,354.42,211.35,355.85,213.48,357.24z"/>
				<path class="st2" d="M237.77,368.03c-0.48,0.73-0.79,1.25-0.91,1.54c-0.12,0.3-0.15,0.57-0.1,0.83
					c0.06,0.26,0.29,0.56,0.68,0.89c-0.21,0.31-0.41,0.63-0.62,0.94c-2.37-1.04-4.72-2.12-7.02-3.25c0.22-0.3,0.45-0.61,0.67-0.92
					c0.61,0.11,1.04,0.13,1.29,0.06c0.25-0.07,0.49-0.22,0.74-0.44c0.24-0.23,0.65-0.74,1.2-1.53c1.31-1.88,2.6-3.76,3.87-5.65
					c-1.88-0.89-3.74-1.8-5.57-2.75c-1.35,1.85-2.72,3.68-4.11,5.51c-0.24,0.32-0.46,0.62-0.65,0.9c-0.19,0.28-0.33,0.52-0.41,0.72
					c-0.08,0.2-0.12,0.38-0.11,0.55c0.01,0.17,0.06,0.34,0.17,0.52c0.11,0.18,0.26,0.36,0.46,0.56c-0.23,0.3-0.46,0.6-0.69,0.9
					c-2.29-1.18-4.55-2.41-6.77-3.69c0.24-0.29,0.49-0.58,0.73-0.87c0.38,0.09,0.71,0.14,0.98,0.14c0.26,0,0.52-0.07,0.75-0.2
					c0.24-0.13,0.48-0.33,0.74-0.6c0.25-0.27,0.55-0.61,0.9-1.04c3.1-3.85,6.1-7.74,9-11.69c0.32-0.43,0.57-0.8,0.77-1.1
					c0.2-0.3,0.32-0.57,0.37-0.8c0.06-0.23,0.05-0.44-0.03-0.64c-0.08-0.2-0.22-0.43-0.44-0.67c0.22-0.3,0.44-0.6,0.66-0.91
					c1.92,1.07,3.88,2.1,5.86,3.09c-0.21,0.31-0.41,0.62-0.62,0.93c-0.5-0.06-0.88-0.05-1.14,0.05c-0.26,0.09-0.52,0.26-0.77,0.51
					c-0.25,0.24-0.62,0.73-1.12,1.44c-1.08,1.56-2.18,3.11-3.29,4.65c1.81,0.94,3.64,1.84,5.5,2.71c1.04-1.58,2.07-3.17,3.09-4.77
					c0.46-0.73,0.75-1.24,0.88-1.55c0.12-0.31,0.17-0.58,0.13-0.83c-0.04-0.25-0.22-0.54-0.55-0.88c0.2-0.31,0.4-0.63,0.6-0.95
					c2,0.95,4.02,1.85,6.07,2.71c-0.18,0.32-0.37,0.65-0.55,0.97c-0.41-0.03-0.74-0.01-0.97,0.05c-0.24,0.06-0.45,0.18-0.63,0.36
					c-0.19,0.18-0.37,0.39-0.53,0.63c-0.17,0.24-0.41,0.63-0.72,1.15C243.06,359.79,240.46,363.93,237.77,368.03z"/>
				<path class="st2" d="M257.74,355.83c-0.16,0.33-0.32,0.67-0.49,1c-0.69-0.1-1.21-0.01-1.57,0.28c-0.36,0.29-0.81,0.95-1.34,1.99
					c-0.84,1.64-1.7,3.28-2.57,4.92c1.21,0.29,2.21,0.56,2.97,0.83c2.18,0.75,3.57,1.77,4.17,3.09c0.6,1.33,0.43,3.04-0.56,5.15
					c-1.89,4.05-5.46,5.32-10.41,3.56c-2.86-1.03-5.68-2.12-8.47-3.28c0.2-0.32,0.4-0.63,0.6-0.95c0.73,0.1,1.29,0.02,1.66-0.24
					c0.37-0.25,0.86-0.87,1.46-1.85c2.54-4.19,4.98-8.42,7.32-12.68c0.56-1.02,0.85-1.72,0.88-2.09c0.03-0.37-0.2-0.77-0.66-1.18
					c0.18-0.33,0.36-0.65,0.54-0.98C253.39,354.25,255.56,355.07,257.74,355.83z M250.8,365.83c-1.46,2.7-2.96,5.4-4.51,8.07
					c2.15,1.02,3.81,1.27,4.94,0.81c1.13-0.46,2.06-1.44,2.82-2.92c0.67-1.32,0.91-2.44,0.73-3.36c-0.18-0.92-0.98-1.62-2.4-2.13
					C251.92,366.13,251.39,365.97,250.8,365.83z M269.76,363.86c-1.71,4.51-3.52,9-5.42,13.47c-0.44,1.04-0.65,1.75-0.62,2.15
					c0.03,0.4,0.35,0.78,0.96,1.13c-0.14,0.34-0.29,0.68-0.44,1.03c-2.59-0.66-5.15-1.38-7.69-2.15c0.16-0.34,0.33-0.67,0.49-1.01
					c0.75,0.03,1.3-0.1,1.64-0.39c0.34-0.29,0.75-0.95,1.23-1.99c2.04-4.42,3.98-8.87,5.83-13.34c0.43-1.06,0.64-1.77,0.62-2.15
					c-0.02-0.38-0.29-0.75-0.8-1.12c0.14-0.34,0.28-0.68,0.42-1.03c2.19,0.63,4.39,1.22,6.62,1.76c-0.12,0.35-0.25,0.7-0.37,1.04
					c-0.68,0.06-1.17,0.24-1.45,0.54C270.5,362.12,270.16,362.81,269.76,363.86z"/>
				<path class="st2" d="M288.05,363.21c-0.4,1.72-0.82,3.44-1.24,5.17c-0.62-0.09-1.24-0.18-1.86-0.28c-0.03-1.07-0.1-1.8-0.21-2.2
					c-0.11-0.39-0.28-0.72-0.51-0.98c-0.23-0.26-0.68-0.44-1.36-0.56c-0.96-0.17-1.92-0.34-2.87-0.52
					c-0.76,2.57-1.55,5.13-2.37,7.69c0.61,0.12,1.22,0.24,1.83,0.35c0.41,0.08,0.75,0.07,1.02-0.03c0.27-0.09,0.53-0.28,0.77-0.56
					c0.24-0.28,0.53-0.74,0.85-1.37c0.52,0.09,1.04,0.17,1.56,0.26c-0.6,2.19-1.21,4.37-1.85,6.55c-0.54-0.09-1.08-0.18-1.63-0.28
					c0.05-0.64,0.05-1.14-0.01-1.5c-0.06-0.36-0.18-0.62-0.36-0.8c-0.18-0.18-0.49-0.31-0.93-0.39c-0.62-0.12-1.24-0.23-1.86-0.35
					c-0.93,2.84-1.89,5.68-2.88,8.51c1.08,0.22,2.15,0.42,3.24,0.62c0.35,0.06,0.65,0.09,0.91,0.09c0.25-0.01,0.5-0.05,0.72-0.13
					c0.23-0.08,0.46-0.21,0.7-0.39c0.24-0.17,0.46-0.37,0.67-0.58c0.2-0.21,0.44-0.5,0.7-0.86c0.26-0.36,0.58-0.87,0.96-1.51
					c0.67,0.11,1.34,0.21,2.01,0.31c-0.64,1.95-1.3,3.9-1.98,5.85c-5-0.77-9.95-1.75-14.83-2.91c0.14-0.34,0.28-0.69,0.42-1.03
					c0.41-0.02,0.74-0.06,1-0.13c0.26-0.07,0.48-0.2,0.67-0.39c0.19-0.19,0.36-0.45,0.51-0.77c0.16-0.32,0.33-0.74,0.52-1.24
					c1.72-4.53,3.34-9.08,4.87-13.65c0.17-0.5,0.3-0.92,0.39-1.26c0.09-0.34,0.13-0.63,0.1-0.86c-0.02-0.23-0.1-0.44-0.24-0.61
					c-0.14-0.17-0.36-0.35-0.65-0.53c0.12-0.35,0.24-0.7,0.35-1.05C279.42,361.8,283.71,362.59,288.05,363.21z"/>
				<path class="st2" d="M317.18,365.87c-0.48,0.18-0.82,0.37-1,0.57c-0.18,0.2-0.31,0.46-0.39,0.79c-0.08,0.33-0.14,0.91-0.17,1.74
					c-0.2,4.79-0.47,9.59-0.82,14.39c-0.05,0.68-0.06,1.21-0.03,1.6c0.03,0.39,0.14,0.69,0.31,0.89c0.18,0.2,0.56,0.38,1.14,0.53
					c-0.02,0.37-0.05,0.73-0.08,1.1c-2.69,0.07-5.38,0.08-8.06,0.03c0.05-0.36,0.09-0.73,0.13-1.09c0.47-0.13,0.8-0.24,0.99-0.34
					c0.19-0.1,0.34-0.23,0.45-0.39c0.11-0.16,0.21-0.4,0.3-0.73c0.08-0.33,0.16-0.87,0.24-1.62c0.28-2.71,0.53-5.42,0.76-8.14
					c0.08-0.9,0.18-1.95,0.3-3.17c0.12-1.22,0.21-2.08,0.28-2.59c-0.1,0-0.2,0-0.29,0c-0.14,0.44-0.29,0.88-0.45,1.3
					c-0.16,0.43-0.46,1.19-0.9,2.28c-1.62,3.98-3.41,7.95-5.35,11.88c-0.9-0.03-1.81-0.07-2.71-0.12c-0.73-4.54-1.4-9.08-2.03-13.62
					c-0.11-0.77-0.2-1.54-0.26-2.3c-0.08-0.01-0.17-0.01-0.25-0.02c-0.19,1.82-0.49,3.96-0.91,6.43c-0.43,2.52-0.89,5.05-1.37,7.57
					c-0.15,0.81-0.23,1.38-0.22,1.7c0.01,0.32,0.1,0.6,0.28,0.82c0.18,0.22,0.52,0.43,1.03,0.61c-0.07,0.36-0.14,0.72-0.2,1.09
					c-1.96-0.14-3.92-0.31-5.87-0.5c0.08-0.36,0.16-0.72,0.24-1.08c0.4-0.07,0.73-0.16,0.98-0.27c0.25-0.11,0.45-0.27,0.61-0.48
					c0.16-0.21,0.29-0.48,0.38-0.82c0.1-0.34,0.2-0.77,0.31-1.29c0.98-4.73,1.87-9.46,2.68-14.2c0.14-0.83,0.21-1.41,0.2-1.72
					c-0.01-0.31-0.08-0.57-0.22-0.79c-0.14-0.21-0.44-0.43-0.91-0.65c0.06-0.36,0.13-0.72,0.19-1.08c2.2,0.2,4.41,0.35,6.63,0.47
					c0.68,4.58,1.42,9.17,2.2,13.74c2.05-4.48,3.9-9,5.55-13.53c2.11,0.01,4.22-0.03,6.33-0.1
					C317.2,365.14,317.19,365.5,317.18,365.87z"/>
				<path class="st2" d="M330.21,379.56c-2.14,0.22-4.29,0.4-6.43,0.54c-0.17,0.54-0.34,1.08-0.52,1.62
					c-0.15,0.45-0.27,0.89-0.38,1.31c-0.1,0.42-0.16,0.87-0.17,1.33c-0.03,1.09,0.5,1.64,1.58,1.65c-0.01,0.37-0.01,0.73-0.02,1.1
					c-2.24,0.15-4.49,0.26-6.73,0.33c0.02-0.37,0.04-0.73,0.07-1.1c0.39-0.06,0.74-0.21,1.04-0.47c0.3-0.26,0.59-0.6,0.84-1.03
					c0.26-0.43,0.54-1.05,0.83-1.85c2.35-6.27,4.33-12.59,5.95-18.91c1.2-0.11,2.41-0.23,3.61-0.36c1.91,6.03,3.9,12.04,5.99,18.04
					c0.28,0.8,0.51,1.37,0.68,1.7c0.18,0.33,0.4,0.59,0.66,0.77c0.26,0.18,0.62,0.29,1.08,0.33c0.03,0.37,0.05,0.73,0.08,1.1
					c-2.89,0.41-5.79,0.75-8.69,1.03c-0.01-0.37-0.01-0.73-0.02-1.1c0.54-0.12,0.94-0.32,1.19-0.6c0.25-0.28,0.37-0.66,0.36-1.12
					c-0.01-0.34-0.06-0.72-0.15-1.14c-0.08-0.42-0.22-0.94-0.4-1.56C330.52,380.62,330.37,380.09,330.21,379.56z M324.36,378.12
					c1.78-0.13,3.57-0.28,5.35-0.46c-0.9-3.05-1.78-6.09-2.65-9.15C326.26,371.71,325.35,374.92,324.36,378.12z"/>
				<path class="st2" d="M344.66,384.66c-0.04-0.37-0.08-0.73-0.12-1.09c0.43-0.15,0.76-0.32,1-0.49c0.24-0.17,0.4-0.39,0.5-0.64
					c0.09-0.25,0.13-0.56,0.12-0.93c-0.02-0.36-0.06-0.81-0.13-1.34c-0.72-5.5-1.52-10.99-2.4-16.45c-0.37,0.07-0.74,0.14-1.1,0.21
					c-0.55,0.1-0.95,0.26-1.22,0.46c-0.27,0.21-0.49,0.49-0.66,0.86c-0.17,0.37-0.3,0.84-0.38,1.43c-0.08,0.58-0.15,1.13-0.19,1.64
					c-0.64,0.11-1.28,0.21-1.92,0.31c-0.22-1.94-0.44-3.87-0.68-5.81c5.29-0.84,10.56-1.94,15.78-3.3c0.45,1.9,0.89,3.8,1.33,5.71
					c-0.63,0.16-1.27,0.32-1.9,0.48c-0.34-0.7-0.59-1.21-0.76-1.53c-0.18-0.32-0.35-0.59-0.53-0.81c-0.18-0.22-0.35-0.39-0.52-0.52
					c-0.17-0.13-0.34-0.23-0.52-0.29c-0.17-0.06-0.38-0.09-0.62-0.08c-0.24,0-0.54,0.05-0.91,0.13c-0.33,0.07-0.65,0.15-0.98,0.22
					c1.04,5.44,2.01,10.91,2.89,16.39c0.09,0.58,0.18,1.02,0.26,1.32c0.08,0.3,0.18,0.53,0.29,0.7c0.11,0.17,0.24,0.3,0.37,0.39
					c0.14,0.09,0.32,0.16,0.55,0.21c0.22,0.05,0.52,0.06,0.89,0.03c0.06,0.36,0.12,0.73,0.18,1.09
					C350.41,383.59,347.54,384.16,344.66,384.66z"/>
				<path class="st2" d="M368.41,354.75c0.59,1.67,1.18,3.35,1.77,5.03c-0.61,0.23-1.23,0.45-1.84,0.66
					c-0.63-0.9-1.11-1.5-1.43-1.78c-0.32-0.28-0.66-0.48-1.01-0.59c-0.35-0.11-0.86-0.05-1.54,0.18c-0.96,0.32-1.93,0.63-2.9,0.94
					c0.75,2.57,1.49,5.14,2.21,7.72c0.62-0.19,1.24-0.39,1.85-0.59c0.41-0.13,0.71-0.3,0.91-0.52c0.19-0.21,0.32-0.5,0.38-0.86
					c0.06-0.36,0.06-0.89-0.01-1.59c0.52-0.17,1.04-0.35,1.55-0.53c0.7,2.16,1.39,4.32,2.07,6.49c-0.54,0.19-1.08,0.37-1.62,0.55
					c-0.32-0.58-0.61-1-0.87-1.27c-0.26-0.27-0.52-0.44-0.79-0.51c-0.26-0.07-0.62-0.03-1.06,0.12c-0.62,0.2-1.25,0.4-1.88,0.59
					c0.79,2.87,1.57,5.75,2.33,8.64c1.09-0.33,2.18-0.68,3.27-1.03c0.35-0.11,0.64-0.23,0.86-0.36c0.22-0.13,0.41-0.28,0.57-0.46
					c0.15-0.18,0.29-0.4,0.4-0.66c0.11-0.26,0.2-0.53,0.26-0.82c0.06-0.28,0.1-0.64,0.13-1.07c0.03-0.44,0.03-1.02-0.01-1.75
					c0.66-0.23,1.33-0.47,1.99-0.71c0.55,1.97,1.09,3.95,1.61,5.93c-4.93,1.76-9.94,3.32-14.99,4.66c-0.08-0.36-0.16-0.72-0.23-1.08
					c0.35-0.21,0.63-0.41,0.82-0.59c0.19-0.18,0.31-0.4,0.37-0.66c0.06-0.25,0.06-0.55,0.01-0.9c-0.05-0.35-0.13-0.79-0.25-1.31
					c-1.09-4.68-2.24-9.35-3.44-14c-0.13-0.51-0.25-0.93-0.36-1.27c-0.11-0.34-0.24-0.6-0.39-0.79c-0.15-0.19-0.34-0.32-0.57-0.4
					c-0.23-0.08-0.52-0.13-0.89-0.14c-0.09-0.36-0.18-0.71-0.27-1.07C359.79,357.73,364.13,356.34,368.41,354.75z"/>
				<path class="st2" d="M383.28,369.01c0.27,0.69,0.49,1.17,0.65,1.44c0.16,0.27,0.33,0.46,0.51,0.59c0.18,0.12,0.4,0.2,0.65,0.23
					c0.25,0.03,0.62-0.01,1.09-0.12c0.14,0.34,0.28,0.69,0.41,1.03c-2.64,1.14-5.3,2.21-7.98,3.23c-0.12-0.35-0.24-0.7-0.36-1.05
					c0.33-0.24,0.58-0.47,0.75-0.67c0.17-0.2,0.27-0.43,0.29-0.69c0.03-0.26,0-0.56-0.09-0.9c-0.09-0.34-0.22-0.77-0.4-1.28
					c-1.63-4.55-3.31-9.08-5.02-13.58c-0.19-0.49-0.35-0.9-0.51-1.23c-0.15-0.33-0.31-0.57-0.48-0.75
					c-0.17-0.17-0.38-0.29-0.61-0.34c-0.24-0.06-0.54-0.08-0.91-0.05c-0.13-0.35-0.26-0.69-0.39-1.04c2.5-0.97,4.97-2,7.42-3.1
					c2.13-0.96,3.92-1.25,5.42-0.85c1.49,0.4,2.72,1.53,3.64,3.44c0.65,1.34,0.96,2.64,0.91,3.9c-0.05,1.25-0.47,2.38-1.25,3.38
					c-0.78,1-1.95,1.85-3.5,2.53c-0.89,0.39-1.64,0.69-2.23,0.89C381.96,365.66,382.62,367.33,383.28,369.01z M380.59,362.23
					c0.39-0.17,0.79-0.34,1.18-0.51c0.91-0.4,1.57-0.87,1.98-1.4c0.41-0.53,0.59-1.18,0.57-1.93c-0.03-0.75-0.28-1.67-0.77-2.74
					c-0.48-1.06-0.99-1.85-1.52-2.37c-0.53-0.52-1.09-0.8-1.67-0.85c-0.59-0.05-1.25,0.09-1.98,0.41c-0.6,0.26-1.06,0.48-1.38,0.64
					C378.21,356.39,379.4,359.31,380.59,362.23z"/>
				<path class="st2" d="M411.35,354.01c0.61,0.97,1.1,1.56,1.46,1.78c0.36,0.22,0.9,0.2,1.63-0.05c0.2,0.31,0.41,0.63,0.61,0.95
					c-2.32,1.56-4.68,3.06-7.07,4.5c-0.19-0.32-0.37-0.65-0.56-0.97c0.56-0.56,0.83-1.04,0.81-1.42c-0.02-0.38-0.34-1.11-0.97-2.17
					c-1.13-1.9-2.27-3.8-3.41-5.7c-1.03-1.71-1.79-3.04-2.25-3.97c-0.02,0.02-0.05,0.03-0.07,0.05c-0.02,4.41-0.23,8.87-0.62,13.37
					c0.53,0.99,0.97,1.6,1.32,1.85c0.35,0.25,0.91,0.27,1.65,0.07c0.18,0.33,0.36,0.65,0.54,0.98c-2.44,1.39-4.91,2.73-7.4,4
					c-0.16-0.34-0.32-0.67-0.49-1.01c0.57-0.51,0.86-0.98,0.87-1.41c0.01-0.43-0.24-1.16-0.75-2.18c-2.17-4.35-4.38-8.67-6.62-12.98
					c-0.54-1.03-0.96-1.66-1.28-1.9c-0.32-0.24-0.82-0.3-1.5-0.18c-0.17-0.33-0.34-0.66-0.51-0.99c2.15-1.13,4.29-2.3,6.39-3.53
					c0.18,0.32,0.37,0.65,0.55,0.97c-0.46,0.53-0.68,1-0.65,1.41c0.03,0.41,0.32,1.11,0.88,2.11c1.21,2.17,2.4,4.34,3.59,6.52
					c0.68,1.24,1.18,2.23,1.5,2.98c0.03-0.02,0.05-0.03,0.08-0.05c0.32-4.46,0.46-8.89,0.41-13.27c-0.5-0.81-0.91-1.31-1.23-1.52
					c-0.32-0.2-0.82-0.22-1.48-0.05c-0.19-0.32-0.38-0.64-0.58-0.96c2.06-1.27,4.1-2.59,6.11-3.97c0.21,0.31,0.42,0.62,0.62,0.93
					c-0.42,0.55-0.6,1.02-0.54,1.42c0.06,0.4,0.41,1.09,1.04,2.07C406.1,345.78,408.74,349.88,411.35,354.01z"/>
				<path class="st2" d="M422.35,342.34c-1.71,1.38-3.45,2.73-5.21,4.04c0.18,0.54,0.35,1.08,0.53,1.63
					c0.15,0.46,0.3,0.89,0.47,1.29c0.17,0.4,0.39,0.8,0.66,1.19c0.64,0.91,1.43,1.08,2.36,0.48c0.22,0.31,0.44,0.61,0.65,0.92
					c-1.84,1.37-3.7,2.69-5.59,3.98c-0.21-0.31-0.41-0.63-0.62-0.94c0.3-0.26,0.5-0.58,0.61-0.96c0.11-0.38,0.14-0.82,0.1-1.31
					c-0.04-0.5-0.18-1.16-0.41-1.98c-1.78-6.48-3.81-12.83-6.08-19.04c0.98-0.77,1.96-1.55,2.92-2.34
					c5.15,3.98,10.41,7.88,15.78,11.69c0.72,0.51,1.25,0.85,1.6,1.03c0.35,0.17,0.69,0.26,1.03,0.26c0.33,0,0.71-0.11,1.12-0.33
					c0.24,0.29,0.49,0.58,0.73,0.87c-2.22,1.97-4.49,3.87-6.81,5.72c-0.23-0.3-0.46-0.6-0.68-0.9c0.39-0.4,0.61-0.79,0.66-1.16
					c0.05-0.38-0.08-0.75-0.37-1.13c-0.22-0.28-0.49-0.57-0.81-0.86c-0.32-0.3-0.75-0.65-1.28-1.07
					C423.25,343.05,422.8,342.7,422.35,342.34z M416.44,344.41c1.46-1.1,2.91-2.22,4.34-3.37c-2.59-2.03-5.16-4.07-7.7-6.14
					C414.26,338.04,415.38,341.21,416.44,344.41z"/>
				<path class="st2" d="M448.7,326.88c-1.93,2.25-3.92,4.44-5.96,6.57c-0.26-0.27-0.53-0.54-0.79-0.81
					c0.47-0.82,0.61-1.47,0.43-1.93c-0.18-0.46-0.69-1.11-1.52-1.94c-3.96-3.97-7.92-7.91-11.89-11.82
					c-0.72,0.78-1.45,1.55-2.18,2.31c1.71,2.02,3.44,4.33,5.14,6.94c1.71,2.61,3.01,4.93,3.93,6.97c0.91,2.03,1.32,3.62,1.23,4.74
					c-0.09,1.12-0.6,2.12-1.54,2.98c-0.72,0.66-1.48,1.16-2.25,1.49c-0.89-1.06-1.78-2.12-2.68-3.17c0.5-0.45,1-0.9,1.5-1.36
					c0.77,0.66,1.39,0.77,1.88,0.32c0.38-0.35,0.58-0.88,0.58-1.57c0.01-0.69-0.42-1.95-1.29-3.75c-0.87-1.8-2.07-3.87-3.59-6.19
					c-1.52-2.32-2.72-3.91-3.56-4.8c-0.58-0.61-1.05-0.94-1.4-1c-0.35-0.06-0.74,0.07-1.18,0.39c-0.26-0.27-0.51-0.55-0.77-0.82
					c3.04-3.01,5.97-6.16,8.76-9.46c0.28,0.25,0.55,0.51,0.83,0.76c-0.29,0.66-0.39,1.18-0.3,1.56c0.09,0.38,0.66,1.06,1.71,2.04
					c3.46,3.24,6.91,6.51,10.37,9.8c0.99,0.94,1.69,1.45,2.1,1.54c0.41,0.08,0.96-0.1,1.63-0.57
					C448.15,326.36,448.42,326.62,448.7,326.88z"/>
				<path class="st2" d="M438.04,302.7c0.29,0.24,0.58,0.47,0.87,0.71c-0.33,0.69-0.42,1.25-0.24,1.67
					c0.18,0.43,0.72,1.02,1.63,1.78c1.44,1.19,2.88,2.39,4.31,3.59c0.7-1.17,1.3-2.13,1.82-2.86c1.49-2.08,2.98-3.31,4.55-3.66
					c1.57-0.36,3.3,0.15,5.19,1.56c3.65,2.69,3.97,6.52,0.61,11.16c-1.95,2.68-3.97,5.29-6.07,7.82c-0.28-0.25-0.56-0.51-0.84-0.76
					c0.33-0.71,0.41-1.27,0.26-1.69c-0.16-0.41-0.67-1.01-1.54-1.78c-3.7-3.28-7.4-6.54-11.09-9.77c-0.88-0.77-1.52-1.21-1.9-1.31
					c-0.38-0.1-0.87,0.04-1.46,0.43c-0.28-0.25-0.56-0.5-0.84-0.75C434.93,306.85,436.51,304.8,438.04,302.7z M446.21,311.78
					c2.39,2,4.77,4,7.16,6.02c1.74-1.96,2.51-3.59,2.36-4.8c-0.15-1.22-0.9-2.34-2.23-3.38c-1.18-0.93-2.28-1.38-3.3-1.38
					c-1.02,0.01-2.01,0.69-2.99,2.03C446.88,310.71,446.55,311.21,446.21,311.78z M450.21,291.82c4.05,2.74,8.12,5.51,12.19,8.3
					c0.94,0.65,1.63,1,2.06,1.03c0.43,0.04,0.91-0.22,1.45-0.78c0.31,0.21,0.63,0.42,0.94,0.64c-1.43,2.54-2.93,5.02-4.49,7.46
					c-0.31-0.23-0.61-0.45-0.92-0.68c0.25-0.76,0.28-1.34,0.07-1.74c-0.2-0.4-0.78-0.94-1.72-1.61c-4.01-2.9-8.01-5.77-12-8.63
					c-0.94-0.67-1.61-1.04-2-1.1c-0.39-0.06-0.86,0.14-1.4,0.61c-0.3-0.22-0.61-0.44-0.91-0.66c1.37-2.16,2.68-4.37,3.95-6.63
					c0.31,0.21,0.62,0.41,0.93,0.62c-0.16,0.74-0.13,1.29,0.08,1.65C448.68,290.67,449.26,291.18,450.21,291.82z"/>
			</g>
		</g>
	</g>
	<text transform="matrix(0.9066 0 0 1 198.2134 271.4058)" class="st1 st3 st4">РМ</text>
</g>
</svg>
